<?xml version="1.0" standalone="no"?>
<!DOCTYPE svg PUBLIC "-//W3C//DTD SVG 20010904//EN"
 "http://www.w3.org/TR/2001/REC-SVG-20010904/DTD/svg10.dtd">
<svg version="1.0" xmlns="http://www.w3.org/2000/svg"
 width="500.000000pt" height="500.000000pt" viewBox="0 0 500.000000 500.000000"
 preserveAspectRatio="xMidYMid meet">
<metadata>
Created by potrace 1.14, written by Peter Selinger 2001-2017
</metadata>
<g transform="translate(0.000000,500.000000) scale(0.100000,-0.100000)"
fill="#000000" stroke="none">
<path d="M1130 2545 l0 -1435 192 0 191 0 -5 1198 c-3 658 -4 1193 -1 1187 2
-5 185 -543 407 -1195 l404 -1185 194 -3 195 -2 403 1192 c221 656 404 1194
405 1196 2 2 0 -535 -3 -1193 l-5 -1195 192 0 191 0 0 1435 0 1435 -279 0
-279 0 -89 -262 c-49 -145 -233 -689 -409 -1210 -175 -520 -320 -945 -321
-944 -1 1 -187 544 -412 1207 l-409 1204 -281 3 -281 2 0 -1435z"/>
</g>
</svg>
